<svg width="48" height="48" viewBox="0 0 48 48" fill="none" xmlns="http://www.w3.org/2000/svg">
<rect width="48" height="48" rx="12" fill="#E96D1F" fill-opacity="0.1"/>
<path d="M18.1547 36.8334C17.5618 36.8334 17.0547 36.6222 16.6333 36.2C16.212 35.7778 16.0009 35.2716 16 34.6814V12.32C16 11.7067 16.2058 11.1947 16.6173 10.784C17.0289 10.3734 17.5413 10.1676 18.1547 10.1667H29.9493C30.5413 10.1667 31.048 10.3778 31.4693 10.8C31.8907 11.2222 32.1018 11.7289 32.1027 12.32V16.608C32.4342 16.6436 32.7222 16.7814 32.9667 17.0214C33.2111 17.2605 33.3333 17.5485 33.3333 17.8854V20.244C33.3333 20.5809 33.2111 20.8689 32.9667 21.108C32.7222 21.3471 32.4342 21.4849 32.1027 21.5214V34.68C32.1027 35.272 31.8916 35.7787 31.4693 36.2C31.0471 36.6214 30.5404 36.8325 29.9493 36.8334H18.1547ZM21.18 33.14H26.9227C27.112 33.14 27.2707 33.0765 27.3987 32.9494C27.5258 32.8214 27.5893 32.6627 27.5893 32.4734C27.5893 32.284 27.5258 32.1258 27.3987 31.9987C27.2716 31.8716 27.1129 31.808 26.9227 31.808H21.18C20.9907 31.808 20.832 31.872 20.704 32C20.576 32.128 20.5124 32.2862 20.5133 32.4747C20.5142 32.6631 20.5778 32.8214 20.704 32.9494C20.8302 33.0774 20.9889 33.1414 21.18 33.1414" fill="#DD5757"/>
</svg>
