<svg width="48" height="48" viewBox="0 0 48 48" fill="none" xmlns="http://www.w3.org/2000/svg">
<rect width="48" height="48" rx="12" fill="#E96D1F" fill-opacity="0.1"/>
<path d="M10 31C10 31.9283 10.3687 32.8185 11.0251 33.4749C11.6815 34.1313 12.5717 34.5 13.5 34.5H34.5C35.4283 34.5 36.3185 34.1313 36.9749 33.4749C37.6313 32.8185 38 31.9283 38 31V21.375H10V31ZM14.125 26.25C14.125 25.7527 14.3225 25.2758 14.6742 24.9242C15.0258 24.5725 15.5027 24.375 16 24.375H19C19.4973 24.375 19.9742 24.5725 20.3258 24.9242C20.6775 25.2758 20.875 25.7527 20.875 26.25V27.5C20.875 27.9973 20.6775 28.4742 20.3258 28.8258C19.9742 29.1775 19.4973 29.375 19 29.375H16C15.5027 29.375 15.0258 29.1775 14.6742 28.8258C14.3225 28.4742 14.125 27.9973 14.125 27.5V26.25ZM34.5 12.5H13.5C12.5717 12.5 11.6815 12.8687 11.0251 13.5251C10.3687 14.1815 10 15.0717 10 16V17.625H38V16C38 15.0717 37.6313 14.1815 36.9749 13.5251C36.3185 12.8687 35.4283 12.5 34.5 12.5Z" fill="#76DD57"/>
</svg>
