<svg width="48" height="48" viewBox="0 0 48 48" fill="none" xmlns="http://www.w3.org/2000/svg">
<rect width="48" height="48" rx="12" fill="#E96D1F"/>
<path opacity="0.5" fill-rule="evenodd" clip-rule="evenodd" d="M16.7816 31.4194C16.6175 31.2553 16.5253 31.0327 16.5253 30.8006C16.5253 30.5686 16.6175 30.346 16.7816 30.1819L24.4125 22.5511L25.6499 23.7885L18.019 31.4194C17.855 31.5835 17.6324 31.6756 17.4003 31.6756C17.1683 31.6756 16.9457 31.5835 16.7816 31.4194Z" fill="black"/>
<path d="M29.9809 28.1196C30.1033 28.2417 30.2592 28.3249 30.4288 28.3586C30.5985 28.3922 30.7743 28.3749 30.9341 28.3086C31.0938 28.2424 31.2304 28.1304 31.3265 27.9866C31.4227 27.8428 31.474 27.6738 31.4741 27.5008L31.4741 17.6013C31.474 17.3695 31.3818 17.1471 31.2178 16.9832C31.0539 16.8192 30.8315 16.727 30.5997 16.7269L20.7002 16.7269C20.5272 16.727 20.3582 16.7784 20.2144 16.8745C20.0706 16.9706 19.9586 17.1072 19.8924 17.2669C19.8262 17.4267 19.8088 17.6025 19.8424 17.7722C19.8761 17.9418 19.9593 18.0977 20.0815 18.2201L29.9809 28.1196Z" fill="black"/>
</svg>
