<svg width="32" height="32" viewBox="0 0 32 32" fill="none" xmlns="http://www.w3.org/2000/svg">
<path d="M3 3.71807V28.2806C3.00016 28.3339 3.01606 28.3859 3.04569 28.4302C3.07532 28.4745 3.11737 28.5091 3.16656 28.5296C3.21575 28.55 3.2699 28.5556 3.32222 28.5454C3.37453 28.5352 3.42268 28.5099 3.46062 28.4724L16.25 15.9999L3.46062 3.52619C3.42268 3.48878 3.37453 3.4634 3.32222 3.45324C3.2699 3.44308 3.21575 3.44859 3.16656 3.46909C3.11737 3.48958 3.07532 3.52414 3.04569 3.56843C3.01606 3.61272 3.00016 3.66478 3 3.71807ZM21.6125 10.8749L5.57625 2.03994L5.56625 2.03432C5.29 1.88432 5.0275 2.25807 5.25375 2.47557L17.8244 14.4956L21.6125 10.8749ZM5.255 29.5243C5.0275 29.7418 5.29 30.1156 5.5675 29.9656L5.5775 29.9599L21.6125 21.1249L17.8244 17.5031L5.255 29.5243ZM28.0863 14.4374L23.6081 11.9712L19.3975 15.9999L23.6081 20.0268L28.0863 17.5624C29.3044 16.8893 29.3044 15.1106 28.0863 14.4374Z" fill="white"/>
</svg>
