<svg width="160" height="24" viewBox="0 0 160 24" fill="none" xmlns="http://www.w3.org/2000/svg">
<path d="M12 17.27L18.18 21L16.54 13.97L22 9.24L14.81 8.63L12 2L9.19 8.63L2 9.24L7.46 13.97L5.82 21L12 17.27Z" fill="#E6C400"/>
<path d="M46 17.27L52.18 21L50.54 13.97L56 9.24L48.81 8.63L46 2L43.19 8.63L36 9.24L41.46 13.97L39.82 21L46 17.27Z" fill="#E6C400"/>
<path d="M80 17.27L86.18 21L84.54 13.97L90 9.24L82.81 8.63L80 2L77.19 8.63L70 9.24L75.46 13.97L73.82 21L80 17.27Z" fill="#E6C400"/>
<path d="M114 17.27L120.18 21L118.54 13.97L124 9.24L116.81 8.63L114 2L111.19 8.63L104 9.24L109.46 13.97L107.82 21L114 17.27Z" fill="#E6C400"/>
<path d="M148 17.27L154.18 21L152.54 13.97L158 9.24L150.81 8.63L148 2L145.19 8.63L138 9.24L143.46 13.97L141.82 21L148 17.27Z" fill="#E6C400"/>
</svg>
